<svg width="64" height="65" fill="none" xmlns="http://www.w3.org/2000/svg"><g clip-path="url(#prefix__clip0_587_12)"><mask id="prefix__a" style="mask-type:luminance" maskUnits="userSpaceOnUse" x="0" y="0" width="64" height="65"><path d="M64 .5H0v64h64V.5z" fill="#fff"/></mask><g mask="url(#prefix__a)"><path d="M32 .5c17.673 0 32 14.327 32 32 0 17.673-14.327 32-32 32-17.673 0-32-14.327-32-32C0 14.827 14.327.5 32 .5z" fill="#000"/><path d="M31.282 48.157a1.563 1.563 0 00-1.905 1.064l-.01.038-2.126 7.875-.01.038a1.562 1.562 0 003.017.814l.01-.038 2.125-7.875.01-.038c.014-.059.025-.118.033-.178l.006-.06-.05-.254-.074-.368-.047-.229a1.56 1.56 0 00-.98-.789zm-14.808-8.11a1.58 1.58 0 00-.098.244l-.014.052-2.125 7.875-.01.038a1.562 1.562 0 003.016.814l.01-.038 1.927-7.14a14.126 14.126 0 01-2.706-1.845zm-5.067-9.055a1.563 1.563 0 00-1.905 1.063l-.01.038-2.126 7.875-.01.038a1.563 1.563 0 003.017.814l.01-.038 2.125-7.875.01-.038c.2-.82-.29-1.656-1.111-1.878zm47.648-1.789a1.562 1.562 0 00-1.905 1.064l-.011.038-2.125 7.875-.01.038a1.563 1.563 0 003.016.813l.01-.037 2.126-7.875.01-.038c.2-.821-.29-1.656-1.111-1.878zM6.779 18.687a28.55 28.55 0 00-3.337 10.47 1.562 1.562 0 002.671-.587l.011-.038 2.125-7.875.01-.038a1.562 1.562 0 00-1.48-1.932zm46.893.054a1.563 1.563 0 00-1.905 1.064l-.01.038-2.125 7.875-.01.038a1.562 1.562 0 003.016.814l.01-.038 2.126-7.875.01-.038c.2-.82-.291-1.656-1.112-1.878zM16.027 11.253a1.562 1.562 0 00-1.905 1.064l-.01.038-2.125 7.875-.01.038a1.562 1.562 0 003.016.814l.011-.038 2.125-7.875.01-.038c.2-.821-.29-1.656-1.111-1.878zm27.304 1.489a1.563 1.563 0 00-1.905 1.064l-.01.037-1.428 5.292c.925.456 1.808.994 2.638 1.607l.137.102 1.67-6.186.01-.038c.2-.821-.29-1.657-1.111-1.878zM29.433 3.863c-.997.088-1.988.228-2.97.42l-.209.041-1.98 7.342-.01.038a1.563 1.563 0 003.016.814l.01-.038 2.126-7.874.01-.038a1.55 1.55 0 00.007-.705zm19.554 5.44l-.418 1.547-.01.038a1.563 1.563 0 003.017.814l.01-.038.046-.168a28.921 28.921 0 00-2.46-2.057l-.185-.136zM36.623 4.12l-.753 2.793-.01.038a1.562 1.562 0 003.016.814l.01-.038.794-2.94a28.582 28.582 0 00-2.834-.63l-.223-.037zM20.674 53.034a1.563 1.563 0 013.016.814l-.01.038-1.52 5.636-.213-.079a28.6 28.6 0 01-2.69-1.164l1.406-5.208.01-.037z" fill="#fff"/><path d="M30.75 18.614c-9.305 0-16.544 5.858-16.544 13.143 0 6.88 6.66 11.274 16.986 11.054.878-.02 1.131.57 1.417 1.366.286.794 1.054 4.984 1.666 8.188.548 2.868 1.104 5.746 1.53 8.636 6.742-.892 12.976-4.222 17.544-9.245l-4.872-18.17c-1.214-4.389-2.634-8.432-6.39-11.37-3.022-2.363-6.861-3.602-11.337-3.602z" fill="#fff"/><path d="M32.75 23.875a2 2 0 110 4 2 2 0 010-4z" fill="#000"/></g></g><defs><clipPath id="prefix__clip0_587_12"><path fill="#fff" transform="translate(0 .5)" d="M0 0h64v64H0z"/></clipPath></defs></svg>