<svg width="64" height="65" fill="none" xmlns="http://www.w3.org/2000/svg"><g clip-path="url(#prefix__prefix__prefix__prefix__clip0_587_23)"><g filter="url(#prefix__prefix__prefix__prefix__filter0_dd_587_23)"><path fill-rule="evenodd" clip-rule="evenodd" d="M24.658 30.295c0-2.7-.51-5.048-1.526-7.083-1.057-1.995-2.583-3.56-4.618-4.695-2.034-1.135-4.5-1.683-7.434-1.683H.202v27.39h10.369c2.718 0 4.8-.43 6.734-1.405a5.8 5.8 0 01-.004-.205c0-3.153 2.55-5.71 5.694-5.71.094 0 .186.002.279.006.986-2.008 1.384-3.999 1.384-6.616m-17.882-7.59v15.65h3.717c2.387 0 4.187-.704 5.4-2.151 1.213-1.41 1.839-3.326 1.839-5.791 0-2.426-.587-4.304-1.76-5.674-1.175-1.37-2.935-2.035-5.244-2.035H6.776" fill="#5865F2"/></g><g filter="url(#prefix__prefix__prefix__prefix__filter1_dd_587_23)"><path d="M26.611 42.615a3.598 3.598 0 11-7.196 0 3.598 3.598 0 017.196 0z" fill="#5865F2"/></g></g><defs><filter id="prefix__prefix__prefix__prefix__filter0_dd_587_23" x="-.125" y="16.834" width="25.111" height="28.127" filterUnits="userSpaceOnUse" color-interpolation-filters="sRGB"><feFlood flood-opacity="0" result="BackgroundImageFix"/><feColorMatrix in="SourceAlpha" values="0 0 0 0 0 0 0 0 0 0 0 0 0 0 0 0 0 0 127 0" result="hardAlpha"/><feOffset dy=".41"/><feGaussianBlur stdDeviation=".164"/><feColorMatrix values="0 0 0 0 0 0 0 0 0 0 0 0 0 0 0 0 0 0 0.04 0"/><feBlend in2="BackgroundImageFix" result="effect1_dropShadow_587_23"/><feColorMatrix in="SourceAlpha" values="0 0 0 0 0 0 0 0 0 0 0 0 0 0 0 0 0 0 127 0" result="hardAlpha"/><feOffset dy=".164"/><feGaussianBlur stdDeviation=".061"/><feColorMatrix values="0 0 0 0 0 0 0 0 0 0 0 0 0 0 0 0 0 0 0.1 0"/><feBlend in2="effect1_dropShadow_587_23" result="effect2_dropShadow_587_23"/><feBlend in="SourceGraphic" in2="effect2_dropShadow_587_23" result="shape"/></filter><filter id="prefix__prefix__prefix__prefix__filter1_dd_587_23" x="19.087" y="39.017" width="7.852" height="7.933" filterUnits="userSpaceOnUse" color-interpolation-filters="sRGB"><feFlood flood-opacity="0" result="BackgroundImageFix"/><feColorMatrix in="SourceAlpha" values="0 0 0 0 0 0 0 0 0 0 0 0 0 0 0 0 0 0 127 0" result="hardAlpha"/><feOffset dy=".41"/><feGaussianBlur stdDeviation=".164"/><feColorMatrix values="0 0 0 0 0 0 0 0 0 0 0 0 0 0 0 0 0 0 0.04 0"/><feBlend in2="BackgroundImageFix" result="effect1_dropShadow_587_23"/><feColorMatrix in="SourceAlpha" values="0 0 0 0 0 0 0 0 0 0 0 0 0 0 0 0 0 0 127 0" result="hardAlpha"/><feOffset dy=".164"/><feGaussianBlur stdDeviation=".061"/><feColorMatrix values="0 0 0 0 0 0 0 0 0 0 0 0 0 0 0 0 0 0 0.1 0"/><feBlend in2="effect1_dropShadow_587_23" result="effect2_dropShadow_587_23"/><feBlend in="SourceGraphic" in2="effect2_dropShadow_587_23" result="shape"/></filter><clipPath id="prefix__prefix__prefix__prefix__clip0_587_23"><path fill="#fff" transform="translate(0 .5)" d="M0 0h64v64H0z"/></clipPath></defs></svg>