<?xml version="1.0" encoding="UTF-8"?>
<!DOCTYPE svg PUBLIC "-//W3C//DTD SVG 1.1//EN" "http://www.w3.org/Graphics/SVG/1.1/DTD/svg11.dtd">
<svg xmlns="http://www.w3.org/2000/svg" version="1.1" width="200px" height="200px" style="shape-rendering:geometricPrecision; text-rendering:geometricPrecision; image-rendering:optimizeQuality; fill-rule:evenodd; clip-rule:evenodd" xmlns:xlink="http://www.w3.org/1999/xlink">
<g><path style="opacity:1" fill="#0a0a16" d="M -0.5,-0.5 C 66.1667,-0.5 132.833,-0.5 199.5,-0.5C 199.5,66.1667 199.5,132.833 199.5,199.5C 132.833,199.5 66.1667,199.5 -0.5,199.5C -0.5,132.833 -0.5,66.1667 -0.5,-0.5 Z"/></g>
<g><path style="opacity:1" fill="#fcfcfc" d="M 33.5,59.5 C 43.8387,59.3335 54.172,59.5002 64.5,60C 79.2447,63.4817 86.578,72.8151 86.5,88C 86.6774,93.0103 85.844,97.8436 84,102.5C 75.8333,104 71,108.833 69.5,117C 67.2115,117.822 64.8782,118.489 62.5,119C 52.8391,119.5 43.1724,119.666 33.5,119.5C 33.5,99.5 33.5,79.5 33.5,59.5 Z"/></g>
<g><path style="opacity:1" fill="#fb5b5a" d="M 109.5,71.5 C 105.027,73.7381 100.36,75.4048 95.5,76.5C 95.5,70.8333 95.5,65.1667 95.5,59.5C 100.167,59.5 104.833,59.5 109.5,59.5C 109.5,63.5 109.5,67.5 109.5,71.5 Z"/></g>
<g><path style="opacity:1" fill="#f95c5a" d="M 168.5,71.5 C 154.181,70.4409 139.847,69.4409 125.5,68.5C 128.482,64.4847 132.482,61.6514 137.5,60C 150.14,57.329 161.14,60.329 170.5,69C 169.934,69.9947 169.267,70.828 168.5,71.5 Z"/></g>
<g><path style="opacity:1" fill="#f19152" d="M 125.5,68.5 C 139.847,69.4409 154.181,70.4409 168.5,71.5C 166.85,73.6507 165.017,75.6507 163,77.5C 156.298,72.6164 148.798,70.783 140.5,72C 135.717,73.9419 133.717,77.4419 134.5,82.5C 129.833,82.5 125.167,82.5 120.5,82.5C 119.448,76.7428 121.115,72.0762 125.5,68.5 Z"/></g>
<g><path style="opacity:1" fill="#0d0e18" d="M 47.5,72.5 C 64.9341,69.7705 72.7674,77.1039 71,94.5C 69.705,100.959 65.8717,104.792 59.5,106C 55.5138,106.499 51.5138,106.666 47.5,106.5C 47.5,95.1667 47.5,83.8333 47.5,72.5 Z"/></g>
<g><path style="opacity:1" fill="#f29052" d="M 109.5,71.5 C 109.5,75.5 109.5,79.5 109.5,83.5C 104.833,84.1667 100.167,84.8333 95.5,85.5C 95.5,82.5 95.5,79.5 95.5,76.5C 100.36,75.4048 105.027,73.7381 109.5,71.5 Z"/></g>
<g><path style="opacity:1" fill="#f9d85b" d="M 120.5,82.5 C 125.167,82.5 129.833,82.5 134.5,82.5C 135.228,84.7346 136.561,86.5679 138.5,88C 146.193,91.5142 153.859,95.0142 161.5,98.5C 151.724,102.003 141.724,102.337 131.5,99.5C 124.259,96.2395 120.592,90.5729 120.5,82.5 Z"/></g>
<g><path style="opacity:1" fill="#f9d65a" d="M 109.5,83.5 C 109.5,88.1667 109.5,92.8333 109.5,97.5C 104.77,97.2834 100.103,97.6167 95.5,98.5C 95.5,94.1667 95.5,89.8333 95.5,85.5C 100.167,84.8333 104.833,84.1667 109.5,83.5 Z"/></g>
<g><path style="opacity:1" fill="#5df99a" d="M 109.5,97.5 C 109.5,102.5 109.5,107.5 109.5,112.5C 105.462,112.958 101.462,113.624 97.5,114.5C 95.5539,109.604 94.8872,104.271 95.5,98.5C 100.103,97.6167 104.77,97.2834 109.5,97.5 Z"/></g>
<g><path style="opacity:1" fill="#5cf899" d="M 161.5,98.5 C 167.415,101.413 171.081,106.08 172.5,112.5C 167.616,113.902 162.616,114.569 157.5,114.5C 156.71,113.206 155.71,112.039 154.5,111C 146.462,107.648 138.796,103.815 131.5,99.5C 141.724,102.337 151.724,102.003 161.5,98.5 Z"/></g>
<g><path style="opacity:1" fill="#f9f9f9" d="M 79.5,108.5 C 89.8554,108.038 92.8554,112.538 88.5,122C 78.8207,125.983 74.6541,122.816 76,112.5C 76.6897,110.65 77.8564,109.316 79.5,108.5 Z"/></g>
<g><path style="opacity:1" fill="#5b69f7" d="M 109.5,112.5 C 109.566,118.279 108.233,123.613 105.5,128.5C 97.3435,129.629 89.3435,129.629 81.5,128.5C 86.2474,128.864 90.0807,127.198 93,123.5C 94.0418,120.166 95.5418,117.166 97.5,114.5C 101.462,113.624 105.462,112.958 109.5,112.5 Z"/></g>
<g><path style="opacity:1" fill="#5c6af8" d="M 172.5,112.5 C 172.706,116.898 172.373,121.232 171.5,125.5C 162.113,127.543 152.613,128.877 143,129.5C 134.855,128.589 126.688,127.922 118.5,127.5C 120.218,124.716 122.384,122.383 125,120.5C 132.218,127.238 140.718,129.738 150.5,128C 157.465,125.953 159.798,121.453 157.5,114.5C 162.616,114.569 167.616,113.902 172.5,112.5 Z"/></g>
<g><path style="opacity:1" fill="#b059f6" d="M 81.5,128.5 C 89.3435,129.629 97.3435,129.629 105.5,128.5C 100.687,136.913 93.3536,141.246 83.5,141.5C 73.4566,141.268 66.1233,136.768 61.5,128C 61.6448,127.228 61.9781,126.561 62.5,126C 65.7603,125.025 68.927,123.858 72,122.5C 74.2975,125.98 77.4642,127.98 81.5,128.5 Z"/></g>
<g><path style="opacity:1" fill="#b059f7" d="M 171.5,125.5 C 165.699,136.326 156.532,141.66 144,141.5C 133.385,140.689 124.219,136.689 116.5,129.5C 116.855,128.478 117.522,127.811 118.5,127.5C 126.688,127.922 134.855,128.589 143,129.5C 152.613,128.877 162.113,127.543 171.5,125.5 Z"/></g>
</svg>
