<svg width="64" height="65" fill="none" xmlns="http://www.w3.org/2000/svg"><g clip-path="url(#prefix__clip0_587_37)" fill="#2395EC"><path d="M63.369 26.963c-.173-.136-1.793-1.343-5.21-1.343a16.85 16.85 0 00-2.693.228c-.661-4.472-4.292-6.573-4.46-6.67l-.917-.523-.604.858c-.756 1.155-1.424 2.347-1.748 3.684-.612 2.554-.24 4.951 1.075 7-1.59.874-4.298.951-4.812.97H2.109c-1.101.001-1.995.88-2.001 1.965-.05 3.644.47 7.404 1.741 10.825 1.452 3.758 3.613 6.526 6.424 8.219 3.15 1.903 8.267 2.99 14.068 2.99 2.62.009 5.236-.225 7.812-.698a32.978 32.978 0 0010.196-3.653 27.986 27.986 0 006.959-5.62c3.34-3.731 5.329-7.884 6.809-11.576h.59c3.657 0 5.905-1.444 7.145-2.654a7.702 7.702 0 001.885-2.753l.263-.757-.631-.492z"/><path d="M10.666 29.833h-4A1.334 1.334 0 015.333 28.5v-4c0-.736.597-1.333 1.333-1.333h4c.736 0 1.334.597 1.334 1.333v4c0 .736-.598 1.333-1.334 1.333zM18.666 29.833h-4a1.334 1.334 0 01-1.333-1.333v-4c0-.736.597-1.333 1.333-1.333h4c.736 0 1.334.597 1.334 1.333v4c0 .736-.598 1.333-1.334 1.333zM26.666 29.833h-4a1.334 1.334 0 01-1.333-1.333v-4c0-.736.597-1.333 1.333-1.333h4c.736 0 1.334.597 1.334 1.333v4c0 .736-.598 1.333-1.334 1.333zM34.666 29.833h-4a1.334 1.334 0 01-1.333-1.333v-4c0-.736.597-1.333 1.333-1.333h4c.736 0 1.334.597 1.334 1.333v4c0 .736-.598 1.333-1.334 1.333zM18.666 21.833h-4a1.334 1.334 0 01-1.333-1.333v-4c0-.736.597-1.333 1.333-1.333h4c.736 0 1.334.597 1.334 1.333v4c0 .736-.598 1.333-1.334 1.333zM26.666 21.833h-4a1.334 1.334 0 01-1.333-1.333v-4c0-.736.597-1.333 1.333-1.333h4c.736 0 1.334.597 1.334 1.333v4c0 .736-.598 1.333-1.334 1.333zM34.666 21.833h-4a1.334 1.334 0 01-1.333-1.333v-4c0-.736.597-1.333 1.333-1.333h4c.736 0 1.334.597 1.334 1.333v4c0 .736-.598 1.333-1.334 1.333zM34.666 13.833h-4a1.334 1.334 0 01-1.333-1.333v-4c0-.736.597-1.333 1.333-1.333h4c.736 0 1.334.597 1.334 1.333v4c0 .736-.598 1.333-1.334 1.333zM42.666 29.833h-4a1.334 1.334 0 01-1.333-1.333v-4c0-.736.597-1.333 1.333-1.333h4c.736 0 1.334.597 1.334 1.333v4c0 .736-.598 1.333-1.334 1.333z"/></g><defs><clipPath id="prefix__clip0_587_37"><path fill="#fff" transform="translate(0 .5)" d="M0 0h64v64H0z"/></clipPath></defs></svg>