<svg width="64" height="65" fill="none" xmlns="http://www.w3.org/2000/svg"><path d="M19.491 24.517l12.143-7.01a.981.981 0 01.982 0l12.143 7.01a.983.983 0 01.491.85V39.39c0 .35-.188.675-.491.85L32.616 47.25a.982.982 0 01-.982 0L19.49 40.24a.983.983 0 01-.491-.851V25.367c0-.35.188-.674.491-.85z" fill="#8080F2"/><path d="M63.604 31.23L49.081 5.961c-.528-.913-1.502-1.587-2.557-1.587H17.476c-1.055 0-2.03.674-2.557 1.588L.396 31.172a3.005 3.005 0 000 2.981l14.523 25.06c.527.913 1.502 1.38 2.557 1.38h29.047c1.055 0 2.03-.453 2.557-1.366l14.524-25.1a2.85 2.85 0 000-2.899zM51.578 43.38c0 .37-.224.714-.546.9l-18.5 10.673a1.052 1.052 0 01-1.046 0L12.972 44.28c-.322-.186-.547-.53-.547-.901V22.032c0-.372.222-.715.544-.901l18.499-10.674a1.05 1.05 0 011.046 0L51.03 21.131c.322.186.549.53.549.901v21.347z" fill="#4B32C3"/></svg>