<svg width="64" height="65" fill="none" xmlns="http://www.w3.org/2000/svg"><g clip-path="url(#prefix__clip0_587_60)"><mask id="prefix__a" style="mask-type:luminance" maskUnits="userSpaceOnUse" x="0" y="0" width="64" height="65"><path d="M0 .579h63.921V64.5H0V.579z" fill="#fff"/></mask><g mask="url(#prefix__a)"><path d="M62.717 29.693L34.807 1.786a4.117 4.117 0 00-5.823 0L23.19 7.582l7.35 7.35a4.89 4.89 0 016.191 6.234l7.087 7.084a4.889 4.889 0 016.125 2.752 4.898 4.898 0 01-4.529 6.773c-1.3 0-2.546-.516-3.466-1.435a4.9 4.9 0 01-1.063-5.329l-6.608-6.606v17.389a4.899 4.899 0 11-5.633.927 4.91 4.91 0 011.603-1.071V24.1a4.903 4.903 0 01-2.657-6.423l-7.248-7.249L1.203 29.562a4.122 4.122 0 000 5.824l27.911 27.91a4.122 4.122 0 005.823 0l27.78-27.78a4.122 4.122 0 000-5.823z" fill="#F03C2E"/></g></g><defs><clipPath id="prefix__clip0_587_60"><path fill="#fff" transform="translate(0 .5)" d="M0 0h64v64H0z"/></clipPath></defs></svg>