<svg width="64" height="65" fill="none" xmlns="http://www.w3.org/2000/svg"><g clip-path="url(#prefix__clip0_587_76)"><path d="M0 .5h64v64H0V.5z" fill="#F7DF1E"/><path d="M16.828 53.983l4.898-2.964c.945 1.675 1.804 3.092 3.866 3.092 1.976 0 3.223-.773 3.223-3.78v-20.45h6.014v20.535c0 6.23-3.652 9.065-8.98 9.065-4.81 0-7.603-2.492-9.02-5.499M38.095 53.337l4.897-2.835c1.29 2.105 2.965 3.652 5.929 3.652 2.492 0 4.081-1.246 4.081-2.965 0-2.062-1.633-2.792-4.382-3.995l-1.503-.645c-4.34-1.846-7.218-4.166-7.218-9.064 0-4.51 3.437-7.948 8.807-7.948 3.824 0 6.573 1.332 8.55 4.812l-4.684 3.008c-1.031-1.848-2.148-2.578-3.866-2.578-1.762 0-2.879 1.117-2.879 2.577 0 1.805 1.117 2.535 3.695 3.652l1.504.645c5.112 2.191 7.99 4.425 7.99 9.45 0 5.414-4.253 8.378-9.966 8.378-5.585 0-9.194-2.663-10.955-6.143" fill="#000"/></g><defs><clipPath id="prefix__clip0_587_76"><path fill="#fff" transform="translate(0 .5)" d="M0 0h64v64H0z"/></clipPath></defs></svg>