<svg width="64" height="65" fill="none" xmlns="http://www.w3.org/2000/svg"><g clip-path="url(#prefix__clip0_587_80)"><path d="M37.708 7.633A113.56 113.56 0 0132.212.537a.121.121 0 00-.175 0c-.475.673-2.798 3.91-5.496 7.096-23.157 29.405 3.647 49.248 3.647 49.248l.225.15c.2 3.062.7 7.469.7 7.469h1.999s.499-4.382.698-7.47l.225-.174c.025 0 26.83-19.818 3.673-49.223zm-5.596 48.8s-1.2-1.02-1.524-1.544v-.05l1.449-32.018c0-.1.15-.1.15 0l1.449 32.019v.05c-.325.522-1.524 1.543-1.524 1.543z" fill="#00684A"/></g><defs><clipPath id="prefix__clip0_587_80"><path fill="#fff" transform="translate(0 .5)" d="M0 0h64v64H0z"/></clipPath></defs></svg>