<svg width="64" height="65" fill="none" xmlns="http://www.w3.org/2000/svg"><g clip-path="url(#prefix__clip0_587_84)"><mask id="prefix__a" style="mask-type:alpha" maskUnits="userSpaceOnUse" x="0" y="0" width="64" height="65"><path d="M32 64.5c17.673 0 32-14.327 32-32 0-17.673-14.327-32-32-32-17.673 0-32 14.327-32 32 0 17.673 14.327 32 32 32z" fill="#000"/></mask><g mask="url(#prefix__a)"><path d="M32 63.433c17.084 0 30.933-13.849 30.933-30.933S49.083 1.567 32 1.567C14.916 1.567 1.066 15.416 1.066 32.5S14.916 63.433 32 63.433z" fill="#000" stroke="#fff" stroke-width="2.133"/><path d="M53.159 56.507L24.584 19.7H19.2v25.59h4.307V25.17l26.27 33.942a32.11 32.11 0 003.382-2.605z" fill="url(#prefix__paint0_linear_587_84)"/><path d="M45.155 19.7H40.89v25.6h4.266V19.7z" fill="url(#prefix__paint1_linear_587_84)"/></g></g><defs><linearGradient id="prefix__paint0_linear_587_84" x1="38.755" y1="41.922" x2="51.377" y2="57.567" gradientUnits="userSpaceOnUse"><stop stop-color="#fff"/><stop offset="1" stop-color="#fff" stop-opacity="0"/></linearGradient><linearGradient id="prefix__paint1_linear_587_84" x1="43.022" y1="19.7" x2="42.951" y2="38.502" gradientUnits="userSpaceOnUse"><stop stop-color="#fff"/><stop offset="1" stop-color="#fff" stop-opacity="0"/></linearGradient><clipPath id="prefix__clip0_587_84"><path fill="#fff" transform="translate(0 .5)" d="M0 0h64v64H0z"/></clipPath></defs></svg>