<svg width="64" height="65" fill="none" xmlns="http://www.w3.org/2000/svg"><g clip-path="url(#prefix__clip0_587_92)"><path d="M32 64.381c-.88 0-1.701-.234-2.465-.645l-7.805-4.637c-1.174-.645-.587-.88-.235-.997 1.585-.528 1.878-.646 3.521-1.585.177-.117.411-.059.587.059l5.986 3.58c.235.117.529.117.705 0L55.71 46.599c.235-.117.352-.352.352-.645V18.897c0-.293-.117-.528-.352-.645L32.294 4.755c-.235-.118-.528-.118-.704 0L8.172 18.253c-.235.117-.352.41-.352.646v27.054c0 .235.117.529.352.646l6.397 3.697c3.463 1.76 5.634-.293 5.634-2.347V21.246c0-.352.294-.704.704-.704h2.994c.352 0 .704.293.704.704v26.703c0 4.636-2.524 7.336-6.926 7.336-1.35 0-2.406 0-5.399-1.468l-6.162-3.52a4.953 4.953 0 01-2.465-4.285V18.957c0-1.76.94-3.404 2.465-4.284L29.535 1.116c1.468-.821 3.463-.821 4.93 0l23.417 13.557a4.953 4.953 0 012.464 4.284v27.055c0 1.76-.939 3.404-2.464 4.284L34.465 63.853a6.007 6.007 0 01-2.465.529zm7.219-18.604c-10.27 0-12.383-4.695-12.383-8.685 0-.352.293-.705.704-.705h3.052c.352 0 .645.235.645.587.47 3.11 1.82 4.637 8.04 4.637 4.93 0 7.043-1.115 7.043-3.756 0-1.526-.587-2.641-8.275-3.404-6.397-.646-10.388-2.054-10.388-7.16 0-4.754 3.991-7.57 10.682-7.57 7.511 0 11.209 2.581 11.678 8.215a.947.947 0 01-.176.529c-.117.117-.293.234-.47.234h-3.05a.688.688 0 01-.647-.528c-.704-3.228-2.523-4.284-7.335-4.284-5.4 0-6.045 1.878-6.045 3.286 0 1.703.763 2.23 8.04 3.17 7.218.938 10.622 2.288 10.622 7.335-.058 5.165-4.284 8.1-11.737 8.1z" fill="#539E43"/></g><defs><clipPath id="prefix__clip0_587_92"><path fill="#fff" transform="translate(0 .5)" d="M0 0h64v64H0z"/></clipPath></defs></svg>