<svg width="64" height="64" fill="none" xmlns="http://www.w3.org/2000/svg"><g clip-path="url(#prefix__clip0_589_155)"><path d="M47.8 46.578c.418-3.39.293-3.887 2.891-3.34l.66.059c2 .086 4.614-.313 6.153-1.008 3.304-1.488 5.265-3.977 2.007-3.324-7.441 1.492-7.953-.957-7.953-.957 7.856-11.32 11.14-25.692 8.305-29.207-7.73-9.598-21.11-5.059-21.336-4.942l-.07.012c-1.469-.293-3.114-.473-4.961-.5-3.367-.055-5.922.856-7.86 2.285 0 0-23.87-9.554-22.757 12.012.234 4.59 6.77 34.719 14.562 25.617 2.848-3.328 5.598-6.14 5.598-6.14a7.373 7.373 0 004.722 1.167l.133-.109c-.043.414-.023.82.051 1.297-2.008 2.18-1.418 2.563-5.43 3.363-4.062.813-1.675 2.262-.117 2.64 1.887.458 6.254 1.106 9.207-2.905l-.117.457c.789.613.734 4.398.848 7.105.109 2.703.297 5.23.863 6.719.57 1.488 1.238 5.32 6.516 4.223 4.406-.918 7.777-2.239 8.085-14.524z" fill="#000"/><mask id="prefix__a" style="mask-type:luminance" maskUnits="userSpaceOnUse" x="0" y="0" width="64" height="64"><path d="M0 0h63.898v63.984H0V0z" fill="#fff"/></mask><g mask="url(#prefix__a)"><path d="M47.8 46.578c.419-3.39.294-3.887 2.891-3.34l.66.059c2 .086 4.614-.313 6.153-1.008 3.305-1.488 5.266-3.977 2.008-3.324-7.442 1.492-7.953-.957-7.953-.957 7.855-11.32 11.14-25.692 8.304-29.207-7.73-9.598-21.11-5.059-21.336-4.942l-.07.012c-1.469-.293-3.113-.473-4.961-.5-3.367-.055-5.922.856-7.86 2.285 0 0-23.87-9.554-22.757 12.012.234 4.59 6.77 34.719 14.562 25.617a141.195 141.195 0 015.598-6.14 7.373 7.373 0 004.723 1.167l.132-.109c-.043.414-.023.82.051 1.297-2.008 2.18-1.418 2.563-5.43 3.363-4.062.813-1.675 2.262-.117 2.64 1.887.458 6.254 1.106 9.207-2.905l-.117.457c.79.613.734 4.398.848 7.105.11 2.703.297 5.23.863 6.719.57 1.488 1.238 5.32 6.516 4.223 4.406-.918 7.777-2.239 8.086-14.524z" stroke="#000" stroke-width="5.451"/></g><path d="M59.512 38.965c-7.441 1.492-7.953-.957-7.953-.957 7.855-11.32 11.14-25.692 8.305-29.207-7.73-9.598-21.11-5.059-21.332-4.942l-.075.012c-1.468-.297-3.113-.473-4.96-.5-3.368-.055-5.922.856-7.86 2.285 0 0-23.871-9.554-22.762 12.012.239 4.59 6.77 34.719 14.563 25.617 2.852-3.328 5.602-6.14 5.602-6.14a7.367 7.367 0 004.718 1.167l.133-.109c-.039.414-.02.82.055 1.297-2.008 2.18-1.418 2.563-5.43 3.363-4.063.813-1.676 2.262-.117 2.64 1.887.458 6.254 1.106 9.207-2.905l-.117.457c.785.613 1.34 3.98 1.246 7.035-.094 3.054-.157 5.152.465 6.789.62 1.637 1.238 5.32 6.511 4.223 4.41-.918 6.696-3.293 7.012-7.262.227-2.82.738-2.403.77-4.926l.41-1.191c.472-3.825.074-5.059 2.789-4.485l.66.059c2 .086 4.617-.313 6.152-1.008 3.305-1.488 5.266-3.977 2.008-3.324z" fill="#336791"/><path d="M31.926 41.156c-.207 7.114.05 14.278.765 16.016.72 1.742 2.254 5.129 7.528 4.031 4.41-.918 6.011-2.695 6.71-6.617.512-2.883 1.5-10.898 1.626-12.54M25.602 5.496S1.715-3.988 2.825 17.578c.234 4.59 6.77 34.719 14.562 25.617a127.089 127.089 0 015.422-5.937M38.504 3.766c-.828.25 13.289-5.012 21.308 4.945 2.832 3.515-.449 17.887-8.304 29.207" stroke="#fff" stroke-width="1.817" stroke-linecap="round" stroke-linejoin="round"/><path d="M51.508 37.918s.511 2.45 7.953.957c3.258-.652 1.297 1.836-2.008 3.328-2.715 1.223-8.797 1.535-8.898-.156-.254-4.36 3.203-3.035 2.953-4.13zm0 0c-.227-.984-1.77-1.95-2.793-4.356-.895-2.105-12.246-18.222 3.148-15.832.563-.113-4.015-14.222-18.422-14.449-14.402-.23-13.93 17.203-13.93 17.203" stroke="#fff" stroke-width="1.817" stroke-linecap="round" stroke-linejoin="bevel"/><path d="M27.895 39.41c-2.008 2.18-1.418 2.563-5.434 3.363-4.058.813-1.676 2.262-.117 2.641 1.887.457 6.258 1.11 9.207-2.906.902-1.223-.004-3.176-1.238-3.672-.598-.238-1.395-.54-2.418.574z" stroke="#fff" stroke-width="1.817" stroke-linecap="round" stroke-linejoin="round"/><path d="M27.762 39.371c-.203-1.281.433-2.805 1.113-4.586 1.024-2.676 3.387-5.351 1.496-13.84-1.406-6.328-10.855-1.316-10.86-.46-.007.859.427 4.347-.155 8.41-.766 5.304 3.472 9.789 8.351 9.332" stroke="#fff" stroke-width="1.817" stroke-linecap="round" stroke-linejoin="round"/><path d="M25.516 20.355c-.043.293.55 1.075 1.324 1.18.777.106 1.438-.504 1.48-.797.043-.293-.55-.617-1.328-.722-.773-.106-1.437.047-1.476.34z" fill="#fff" stroke="#fff" stroke-width=".606"/><path d="M49.09 19.758c.043.293-.55 1.074-1.324 1.18-.777.105-1.438-.505-1.48-.797-.044-.293.55-.618 1.328-.723.773-.106 1.437.05 1.476.34z" fill="#fff" stroke="#fff" stroke-width=".303"/><path d="M51.863 17.73c.125 2.301-.511 3.864-.59 6.31-.12 3.558 1.743 7.624-1.066 11.698" stroke="#fff" stroke-width="1.817" stroke-linecap="round" stroke-linejoin="round"/></g><defs><clipPath id="prefix__clip0_589_155"><path fill="#fff" d="M0 0h64v64H0z"/></clipPath></defs></svg>