<?xml version="1.0" encoding="UTF-8"?>
<!DOCTYPE svg PUBLIC "-//W3C//DTD SVG 1.1//EN" "http://www.w3.org/Graphics/SVG/1.1/DTD/svg11.dtd">
<svg xmlns="http://www.w3.org/2000/svg" version="1.1" width="200px" height="200px" style="shape-rendering:geometricPrecision; text-rendering:geometricPrecision; image-rendering:optimizeQuality; fill-rule:evenodd; clip-rule:evenodd" xmlns:xlink="http://www.w3.org/1999/xlink">
<g><path style="opacity:0.734" fill="#090909" d="M 125.5,-0.5 C 136.5,-0.5 147.5,-0.5 158.5,-0.5C 161.899,1.1316 165.566,2.29826 169.5,3C 177.792,6.62766 184.958,11.7943 191,18.5C 192.964,21.6985 194.63,25.0318 196,28.5C 196.667,37.1667 196.667,45.8333 196,54.5C 192.187,74.7883 185.02,93.7883 174.5,111.5C 178.403,112.574 182.236,112.241 186,110.5C 189.198,111.399 192.365,112.399 195.5,113.5C 200.123,122.33 198.457,129.83 190.5,136C 187.715,136.559 185.382,137.892 183.5,140C 174.59,142.682 165.59,144.515 156.5,145.5C 157.937,160.218 155.27,174.051 148.5,187C 143.529,193.98 136.862,198.147 128.5,199.5C 121.833,199.5 115.167,199.5 108.5,199.5C 105.318,198.176 102.484,196.176 100,193.5C 97.5303,190.046 95.5303,186.379 94,182.5C 92.6755,172.069 91.5088,161.736 90.5,151.5C 82.1401,151.831 73.8068,151.498 65.5,150.5C 62.8549,149.451 60.3549,148.117 58,146.5C 46.5826,151.683 36.5826,149.683 28,140.5C 12.1008,112.616 3.60083,82.4496 2.5,50C 1.13828,18.1871 16.3049,1.6871 48,0.5C 58.163,1.71065 68.163,3.37732 78,5.5C 86.4907,2.41433 95.324,0.747668 104.5,0.5C 109.018,0.564597 113.351,1.23126 117.5,2.5C 120.092,1.08272 122.759,0.0827155 125.5,-0.5 Z"/></g>
<g><path style="opacity:1" fill="#a6a6a6" d="M 154.5,6.5 C 146.167,6.5 137.833,6.5 129.5,6.5C 132.938,5.17683 136.771,4.51016 141,4.5C 144.833,4.66667 148.667,4.83333 152.5,5C 153.416,5.27842 154.082,5.77842 154.5,6.5 Z"/></g>
<g><path style="opacity:1" fill="#ebeef1" d="M 129.5,6.5 C 137.833,6.5 146.167,6.5 154.5,6.5C 157.038,6.5072 159.538,6.84054 162,7.5C 172.994,11.1624 181.66,17.8291 188,27.5C 189.289,30.3508 189.789,33.3508 189.5,36.5C 189.567,45.6301 188.567,54.6301 186.5,63.5C 186.306,66.3297 185.639,68.9963 184.5,71.5C 182.661,73.6535 181.661,76.3201 181.5,79.5C 178.352,87.3125 175.018,95.1458 171.5,103C 168.907,106.741 166.574,110.574 164.5,114.5C 163.351,114.791 162.684,115.624 162.5,117C 162.684,118.376 163.351,119.209 164.5,119.5C 168.5,119.5 172.5,119.5 176.5,119.5C 180.87,118.488 185.203,118.488 189.5,119.5C 191.068,123.256 190.068,126.423 186.5,129C 181.518,133.027 175.851,135.527 169.5,136.5C 163.5,136.5 157.5,136.5 151.5,136.5C 151.5,137.5 151.5,138.5 151.5,139.5C 151.5,141.167 151.5,142.833 151.5,144.5C 150.778,144.918 150.278,145.584 150,146.5C 149.503,149.146 149.336,151.813 149.5,154.5C 149.5,156.833 149.5,159.167 149.5,161.5C 147.598,164.337 146.931,167.671 147.5,171.5C 145.189,184.48 137.522,191.814 124.5,193.5C 118.992,193.849 113.659,193.183 108.5,191.5C 103.966,188.288 100.966,183.954 99.5,178.5C 98.347,165.366 97.347,152.366 96.5,139.5C 92.6991,141.737 88.6991,143.403 84.5,144.5C 80.5,144.5 76.5,144.5 72.5,144.5C 65.1282,144.959 61.6282,141.625 62,134.5C 65.9958,130.72 70.8291,128.886 76.5,129C 78.7263,127.202 80.7263,125.202 82.5,123C 82.1639,121.97 81.4972,121.47 80.5,121.5C 78.6976,120.542 76.6976,119.875 74.5,119.5C 71.5,119.833 69.8333,121.5 69.5,124.5C 68.325,124.281 67.325,124.614 66.5,125.5C 61.8564,131.311 56.6897,136.644 51,141.5C 46.1072,142.855 41.6072,142.022 37.5,139C 33.9195,135.59 30.9195,131.757 28.5,127.5C 21.9833,112.433 16.6499,96.933 12.5,81C 11.8926,77.8571 11.5592,74.6905 11.5,71.5C 10.2613,57.4919 10.2613,43.4919 11.5,29.5C 12.0098,26.9143 13.0098,24.581 14.5,22.5C 17.179,22.4754 18.5123,21.142 18.5,18.5C 21.142,18.5123 22.4754,17.179 22.5,14.5C 23.8333,13.8333 25.1667,13.1667 26.5,12.5C 28.7281,12.2231 30.3947,11.2231 31.5,9.5C 32.5,9.5 33.5,9.5 34.5,9.5C 43.4803,8.22829 52.4803,8.22829 61.5,9.5C 67.3312,9.58311 72.9979,10.5831 78.5,12.5C 81.9023,10.6382 85.569,9.63819 89.5,9.5C 98.6436,8.17916 107.81,8.17916 117,9.5C 118.376,9.31577 119.209,8.64911 119.5,7.5C 122.833,7.16667 126.167,6.83333 129.5,6.5 Z"/></g>
<g><path style="opacity:1" fill="#a2a2a2" d="M 61.5,9.5 C 52.4803,8.22829 43.4803,8.22829 34.5,9.5C 38.2762,8.1752 42.4428,7.50853 47,7.5C 51.1667,7.66667 55.3333,7.83333 59.5,8C 60.4158,8.27842 61.0825,8.77842 61.5,9.5 Z"/></g>
<g><path style="opacity:1" fill="#ababab" d="M 119.5,7.5 C 119.209,8.64911 118.376,9.31577 117,9.5C 107.81,8.17916 98.6436,8.17916 89.5,9.5C 90.1522,8.27493 91.3189,7.60826 93,7.5C 101.823,6.49848 110.657,6.49848 119.5,7.5 Z"/></g>
<g><path style="opacity:1" fill="#858585" d="M 31.5,9.5 C 30.3947,11.2231 28.7281,12.2231 26.5,12.5C 27.4856,10.5923 29.1523,9.59225 31.5,9.5 Z"/></g>
<g><path style="opacity:1" fill="#396b94" d="M 184.5,44.5 C 182.956,51.0848 181.289,57.7515 179.5,64.5C 179.66,66.1992 179.494,67.8659 179,69.5C 174.834,82.6277 169.334,94.961 162.5,106.5C 161.744,91.0305 161.744,75.3639 162.5,59.5C 162.728,55.6095 162.394,51.7762 161.5,48C 154.626,32.5779 143.959,20.5779 129.5,12C 143.784,9.94282 157.451,11.7762 170.5,17.5C 180.744,23.655 185.41,32.655 184.5,44.5 Z"/></g>
<g><path style="opacity:1" fill="#85a4bd" d="M 116.5,14.5 C 109.146,13.2475 101.813,13.2475 94.5,14.5C 97.7681,13.1778 101.435,12.5112 105.5,12.5C 109.565,12.5112 113.232,13.1778 116.5,14.5 Z"/></g>
<g><path style="opacity:1" fill="#356892" d="M 116.5,14.5 C 121.159,14.7113 125.493,16.0446 129.5,18.5C 135.202,23.5401 140.869,28.5401 146.5,33.5C 150.819,38.4714 153.819,44.1381 155.5,50.5C 150.082,51.1424 144.748,52.1424 139.5,53.5C 136.139,55.1783 134.472,57.845 134.5,61.5C 133.191,63.5706 132.525,66.0706 132.5,69C 132.525,71.9294 133.191,74.4294 134.5,76.5C 139.307,90.5539 145.974,103.721 154.5,116C 152.826,118.174 150.826,120.007 148.5,121.5C 146.352,132.417 145.019,143.417 144.5,154.5C 142.598,157.337 141.931,160.671 142.5,164.5C 140.832,183.646 130.498,191.146 111.5,187C 107.186,183.106 104.352,178.272 103,172.5C 102.667,157.167 102.333,141.833 102,126.5C 101.144,124.132 100.31,121.798 99.5,119.5C 96.9752,118.36 94.3085,117.693 91.5,117.5C 91.3367,115.143 91.5034,112.81 92,110.5C 99.6668,95.1945 101.5,79.1945 97.5,62.5C 94.2186,55.4449 88.7186,52.1116 81,52.5C 77.0358,52.7475 73.2025,53.4142 69.5,54.5C 68.5041,54.4142 67.6708,54.7476 67,55.5C 66.5014,51.8484 66.3347,48.1817 66.5,44.5C 68.8001,38.0076 71.6334,31.6742 75,25.5C 78.3943,23.3938 81.2277,20.7272 83.5,17.5C 87.0888,16.1284 90.7555,15.1284 94.5,14.5C 101.813,13.2475 109.146,13.2475 116.5,14.5 Z"/></g>
<g><path style="opacity:1" fill="#356892" d="M 37.5,14.5 C 48.1766,15.034 58.8432,15.7007 69.5,16.5C 71.3117,16.7713 72.9783,17.438 74.5,18.5C 72.8513,19.6477 71.3513,20.981 70,22.5C 68.2528,26.5907 66.4195,30.5907 64.5,34.5C 61.6132,39.599 59.9465,45.2657 59.5,51.5C 59.5,52.5 59.5,53.5 59.5,54.5C 58.4907,65.4893 57.824,76.656 57.5,88C 57.5102,92.229 58.1768,96.0623 59.5,99.5C 59.6951,103.888 61.0284,107.888 63.5,111.5C 66.4989,112.504 67.6655,114.504 67,117.5C 62.326,122.341 57.826,127.341 53.5,132.5C 49.1205,137.231 44.4538,137.565 39.5,133.5C 37.7921,129.605 35.4588,126.105 32.5,123C 24.2423,103.209 18.5756,82.7087 15.5,61.5C 14.1667,52.5 14.1667,43.5 15.5,34.5C 19.0764,23.5857 26.4097,16.919 37.5,14.5 Z"/></g>
<g><path style="opacity:1" fill="#6e91b0" d="M 69.5,16.5 C 58.8432,15.7007 48.1766,15.034 37.5,14.5C 37.6107,13.8826 37.944,13.3826 38.5,13C 41.6667,12.8333 44.8333,12.6667 48,12.5C 55.4757,12.9439 62.6423,14.2773 69.5,16.5 Z"/></g>
<g><path style="opacity:1" fill="#acacac" d="M 22.5,14.5 C 22.4754,17.179 21.142,18.5123 18.5,18.5C 18.5123,21.142 17.179,22.4754 14.5,22.5C 16.5,19.1667 19.1667,16.5 22.5,14.5 Z"/></g>
<g><path style="opacity:1" fill="#c7c7c7" d="M 11.5,29.5 C 10.2613,43.4919 10.2613,57.4919 11.5,71.5C 10.7784,71.0825 10.2784,70.4158 10,69.5C 9.50166,66.1832 9.33499,62.8499 9.5,59.5C 8.20938,52.8202 8.20938,46.1535 9.5,39.5C 9.33591,36.8127 9.50258,34.146 10,31.5C 10.2784,30.5842 10.7784,29.9175 11.5,29.5 Z"/></g>
<g><path style="opacity:1" fill="#6d6d6d" d="M 9.5,39.5 C 8.20938,46.1535 8.20938,52.8202 9.5,59.5C 8.18028,56.572 7.51362,53.2386 7.5,49.5C 7.51362,45.7614 8.18028,42.428 9.5,39.5 Z"/></g>
<g><path style="opacity:1" fill="#a3bacd" d="M 64.5,34.5 C 63.2251,40.3788 61.5584,46.0455 59.5,51.5C 59.9465,45.2657 61.6132,39.599 64.5,34.5 Z"/></g>
<g><path style="opacity:1" fill="#a2b9cc" d="M 184.5,44.5 C 184.732,51.8906 183.065,58.5573 179.5,64.5C 181.289,57.7515 182.956,51.0848 184.5,44.5 Z"/></g>
<g><path style="opacity:1" fill="#2d2d2d" d="M 189.5,36.5 C 190.817,42.3456 190.817,48.3456 189.5,54.5C 188.958,57.7855 187.958,60.7855 186.5,63.5C 188.567,54.6301 189.567,45.6301 189.5,36.5 Z"/></g>
<g><path style="opacity:1" fill="#8faac2" d="M 66.5,44.5 C 66.3347,48.1817 66.5014,51.8484 67,55.5C 67.6708,54.7476 68.5041,54.4142 69.5,54.5C 68.4479,56.256 66.7812,56.9227 64.5,56.5C 64.3442,52.2357 65.0109,48.2357 66.5,44.5 Z"/></g>
<g><path style="opacity:1" fill="#3a6c94" d="M 144.5,59.5 C 147.962,58.5184 151.629,58.185 155.5,58.5C 154.477,73.1586 154.477,87.8252 155.5,102.5C 155.189,103.478 154.522,104.145 153.5,104.5C 148.34,95.5843 144.006,86.251 140.5,76.5C 139.506,71.544 139.173,66.544 139.5,61.5C 140.798,60.8843 141.798,60.8843 142.5,61.5C 142.5,62.5 142.5,63.5 142.5,64.5C 145.5,64.5 148.5,64.5 151.5,64.5C 151.5,62.8333 151.5,61.1667 151.5,59.5C 149.167,59.5 146.833,59.5 144.5,59.5 Z"/></g>
<g><path style="opacity:1" fill="#366992" d="M 79.5,64.5 C 79.5,65.8333 80.1667,66.5 81.5,66.5C 83.927,69.0144 86.5937,69.0144 89.5,66.5C 90.1411,67.9935 91.1411,68.9935 92.5,69.5C 92.5,70.5 92.5,71.5 92.5,72.5C 92.5,79.1667 92.5,85.8333 92.5,92.5C 90.0605,100.263 87.3938,107.93 84.5,115.5C 75.2239,115.282 68.7239,110.948 65,102.5C 64.3333,89.5 64.3333,76.5 65,63.5C 66.3297,62.4178 67.8297,61.7512 69.5,61.5C 71.8845,61.5567 74.2178,61.2234 76.5,60.5C 77.431,61.9183 78.431,63.2517 79.5,64.5 Z"/></g>
<g><path style="opacity:1" fill="#dae3eb" d="M 144.5,59.5 C 146.833,59.5 149.167,59.5 151.5,59.5C 151.5,61.1667 151.5,62.8333 151.5,64.5C 148.5,64.5 145.5,64.5 142.5,64.5C 142.5,63.5 142.5,62.5 142.5,61.5C 143.833,61.5 144.5,60.8333 144.5,59.5 Z"/></g>
<g><path style="opacity:1" fill="#dfe7ed" d="M 81.5,66.5 C 80.1667,66.5 79.5,65.8333 79.5,64.5C 79.5,63.5 79.5,62.5 79.5,61.5C 82.1873,61.3359 84.854,61.5026 87.5,62C 89.9556,63.9125 89.6222,65.5792 86.5,67C 84.735,67.6397 83.0683,67.4731 81.5,66.5 Z"/></g>
<g><path style="opacity:1" fill="#648aab" d="M 92.5,69.5 C 91.1411,68.9935 90.1411,67.9935 89.5,66.5C 86.5937,69.0144 83.927,69.0144 81.5,66.5C 83.0683,67.4731 84.735,67.6397 86.5,67C 89.6222,65.5792 89.9556,63.9125 87.5,62C 84.854,61.5026 82.1873,61.3359 79.5,61.5C 79.5,62.5 79.5,63.5 79.5,64.5C 78.431,63.2517 77.431,61.9183 76.5,60.5C 74.2178,61.2234 71.8845,61.5567 69.5,61.5C 74.6852,58.1978 80.3518,57.1978 86.5,58.5C 90.6735,60.9188 92.6735,64.5855 92.5,69.5 Z"/></g>
<g><path style="opacity:1" fill="#7698b4" d="M 59.5,54.5 C 59.2257,69.5549 59.2257,84.5549 59.5,99.5C 58.1768,96.0623 57.5102,92.229 57.5,88C 57.824,76.656 58.4907,65.4893 59.5,54.5 Z"/></g>
<g><path style="opacity:1" fill="#7e9eb9" d="M 155.5,102.5 C 154.477,87.8252 154.477,73.1586 155.5,58.5C 151.629,58.185 147.962,58.5184 144.5,59.5C 144.5,60.8333 143.833,61.5 142.5,61.5C 141.798,60.8843 140.798,60.8843 139.5,61.5C 140.007,60.1411 141.007,59.1411 142.5,58.5C 147.12,57.5067 151.786,57.1734 156.5,57.5C 156.829,72.676 156.496,87.676 155.5,102.5 Z"/></g>
<g><path style="opacity:1" fill="#8aa6bf" d="M 134.5,61.5 C 133.706,66.4499 133.706,71.4499 134.5,76.5C 133.191,74.4294 132.525,71.9294 132.5,69C 132.525,66.0706 133.191,63.5706 134.5,61.5 Z"/></g>
<g><path style="opacity:1" fill="#575757" d="M 184.5,71.5 C 184.482,74.7363 183.482,77.403 181.5,79.5C 181.661,76.3201 182.661,73.6535 184.5,71.5 Z"/></g>
<g><path style="opacity:1" fill="#7f9fba" d="M 92.5,72.5 C 94.0468,74.8066 94.7135,77.4733 94.5,80.5C 94.4602,84.7397 93.7936,88.7397 92.5,92.5C 92.5,85.8333 92.5,79.1667 92.5,72.5 Z"/></g>
<g><path style="opacity:1" fill="#c0cfdd" d="M 162.5,59.5 C 161.744,75.3639 161.744,91.0305 162.5,106.5C 162.156,109.196 160.823,111.196 158.5,112.5C 158.167,112 157.833,111.5 157.5,111C 158.581,109.629 159.415,108.129 160,106.5C 160.333,92.5 160.667,78.5 161,64.5C 161.198,62.6183 161.698,60.9516 162.5,59.5 Z"/></g>
<g><path style="opacity:1" fill="#8e8e8e" d="M 164.5,114.5 C 163.438,116.234 163.438,117.901 164.5,119.5C 163.351,119.209 162.684,118.376 162.5,117C 162.684,115.624 163.351,114.791 164.5,114.5 Z"/></g>
<g><path style="opacity:1" fill="#808080" d="M 189.5,119.5 C 185.203,118.488 180.87,118.488 176.5,119.5C 178.848,118.048 181.514,117.382 184.5,117.5C 186.64,117.556 188.306,118.223 189.5,119.5 Z"/></g>
<g><path style="opacity:1" fill="#838383" d="M 74.5,119.5 C 76.6976,119.875 78.6976,120.542 80.5,121.5C 77.9179,121.975 75.9179,121.308 74.5,119.5 Z"/></g>
<g><path style="opacity:1" fill="#4d789e" d="M 154.5,122.5 C 163.454,123.696 172.454,124.696 181.5,125.5C 178.438,127.649 175.104,129.315 171.5,130.5C 165.202,131.496 158.868,131.83 152.5,131.5C 152.29,128.248 152.956,125.248 154.5,122.5 Z"/></g>
<g><path style="opacity:1" fill="#457399" d="M 87.5,124.5 C 90.5,124.5 93.5,124.5 96.5,124.5C 97.1509,129.843 95.1509,133.843 90.5,136.5C 83.461,139.943 76.461,140.11 69.5,137C 74.3728,135.684 79.0395,133.851 83.5,131.5C 85.8121,129.701 87.1454,127.368 87.5,124.5 Z"/></g>
<g><path style="opacity:1" fill="#7f7f7f" d="M 169.5,136.5 C 163.401,136.923 157.401,137.923 151.5,139.5C 151.5,138.5 151.5,137.5 151.5,136.5C 157.5,136.5 163.5,136.5 169.5,136.5 Z"/></g>
<g><path style="opacity:1" fill="#414141" d="M 72.5,144.5 C 76.5,144.5 80.5,144.5 84.5,144.5C 82.9522,145.794 80.9522,146.461 78.5,146.5C 76.0478,146.461 74.0478,145.794 72.5,144.5 Z"/></g>
<g><path style="opacity:1" fill="#535353" d="M 151.5,144.5 C 152.069,148.329 151.402,151.663 149.5,154.5C 149.336,151.813 149.503,149.146 150,146.5C 150.278,145.584 150.778,144.918 151.5,144.5 Z"/></g>
<g><path style="opacity:1" fill="#97b1c6" d="M 144.5,154.5 C 144.841,158.16 144.175,161.493 142.5,164.5C 141.931,160.671 142.598,157.337 144.5,154.5 Z"/></g>
<g><path style="opacity:1" fill="#a9a9a9" d="M 96.5,139.5 C 97.347,152.366 98.347,165.366 99.5,178.5C 98.8826,178.389 98.3826,178.056 98,177.5C 96.7727,164.863 96.2727,152.197 96.5,139.5 Z"/></g>
<g><path style="opacity:1" fill="#646464" d="M 149.5,161.5 C 149.841,165.16 149.175,168.493 147.5,171.5C 146.931,167.671 147.598,164.337 149.5,161.5 Z"/></g>
<g><path style="opacity:1" fill="#959595" d="M 108.5,191.5 C 113.659,193.183 118.992,193.849 124.5,193.5C 120.689,194.645 116.689,194.812 112.5,194C 110.563,193.878 109.23,193.045 108.5,191.5 Z"/></g>
</svg>
