<svg width="64" height="65" fill="#fff" xmlns="http://www.w3.org/2000/svg"><g clip-path="url(#prefix__clip0_587_120)"><path d="M57.183 48.587L35.079 2.407c-1.14-2.38-4.446-2.575-5.856-.347L4.709 40.77a2.488 2.488 0 00.039 2.721l12.348 18.334a3.158 3.158 0 003.493 1.272l34.552-9.952a3.272 3.272 0 002.042-4.558zm-4.882 1.66L23.241 58.4a.93.93 0 01-1.16-1.092l10.303-48.17c.186-.867 1.362-1.008 1.746-.208l19 39.528c.33.724-.062 1.574 NaN NaN" fill="#000"/></g><defs><clipPath id="prefix__clip0_587_120"><path transform="translate(0 .5)" d="M0 0h64v64H0z"/></clipPath></defs></svg>