<svg width="64" height="65" fill="none" xmlns="http://www.w3.org/2000/svg"><g clip-path="url(#prefix__clip0_587_135)"><mask id="prefix__a" style="mask-type:luminance" maskUnits="userSpaceOnUse" x="0" y="12" width="64" height="40"><path d="M0 12.944h64v38.4H0v-38.4z" fill="#fff"/></mask><g mask="url(#prefix__a)"><path fill-rule="evenodd" clip-rule="evenodd" d="M32 12.944c-8.533 0-13.867 4.267-16 12.8 3.2-4.266 6.933-5.866 11.2-4.8 2.434.608 4.174 2.376 6.1 4.33 3.137 3.184 6.769 6.87 14.7 6.87 8.533 0 13.867-4.266 16-12.8-3.2 4.267-6.933 5.867-11.2 4.8-2.434-.607-4.174-2.375-6.1-4.329-3.137-3.185-6.769-6.87-14.7-6.87zm-16 19.2c-8.533 0-13.867 4.267-16 12.8 3.2-4.266 6.933-5.866 11.2-4.8 2.434.61 4.174 2.376 6.1 4.33 3.137 3.184 6.769 6.87 14.7 6.87 8.533 0 13.867-4.266 16-12.8-3.2 4.267-6.933 5.867-11.2 4.8-2.434-.608-4.174-2.375-6.1-4.329-3.137-3.185-6.769-6.87-14.7-6.87z" fill="#38BDF8"/></g></g><defs><clipPath id="prefix__clip0_587_135"><path fill="#fff" transform="translate(0 .5)" d="M0 0h64v64H0z"/></clipPath></defs></svg>